<svg aria-hidden="true" style="position: absolute; width: 0; height: 0; overflow: hidden;" version="1.1" xmlns="http://www.w3.org/2000/svg" xmlns:xlink="http://www.w3.org/1999/xlink">
<defs>
<symbol id="icon-burger" viewBox="0 0 49 32">
<path fill="#231d4f" style="fill: var(--color1, #231d4f)" d="M32 32h-32v-5.333h32v5.333zM48 18.667h-48v-5.333h48v5.333zM32 5.333h-32v-5.333h32v5.333z"></path>
</symbol>
<symbol id="icon-path" viewBox="0 0 32 32">
<path   opacity="0.15" d="M16 0c-8.837 0-16 7.163-16 16s7.163 16 16 16c8.836 0 16-7.164 16-16-0.010-8.832-7.168-15.99-16-16z"></path>
<path  d="M25.236 10.933l-9.127 12.385c-0.218 0.289-0.542 0.478-0.901 0.525s-0.721-0.052-1.006-0.275l-6.517-5.211c-0.575-0.46-0.668-1.3-0.208-1.875s1.3-0.668 1.875-0.208l5.435 4.348 8.303-11.268c0.272-0.409 0.747-0.634 1.236-0.588s0.912 0.358 1.103 0.81c0.19 0.453 0.117 0.973-0.192 1.355z"></path>
</symbol>
</defs>
</svg>
